<?xml version="1.0" standalone="no"?>
<svg xmlns="http://www.w3.org/2000/svg" viewBox="0 0 148.44 36" width="148.44" height="36"><g fill="#e478d0" color="#e478d0" transform="translate(0 4) scale(0.4375)"><svg width="64.0" height="64.0" x="0.0" y="0.0" viewBox="0 0 64 64"><path d="M41.305,51.723C42.336,50.806,43,49.485,43,48c0-2.757-2.243-5-5-5s-5,2.243-5,5c0,1.485,0.664,2.806,1.695,3.723  c-1.566,0.714-2.865,1.914-3.695,3.413c-0.83-1.498-2.129-2.698-3.695-3.413C28.336,50.806,29,49.485,29,48c0-2.757-2.243-5-5-5  s-5,2.243-5,5c0,1.485,0.664,2.806,1.695,3.723c-1.566,0.714-2.865,1.914-3.695,3.413c-0.83-1.498-2.129-2.698-3.695-3.413  C14.336,50.806,15,49.485,15,48c0-2.757-2.243-5-5-5s-5,2.243-5,5c0,1.485,0.664,2.806,1.695,3.723C3.93,52.984,2,55.768,2,59v2  c0,0.553,0.448,1,1,1h42c0.552,0,1-0.447,1-1v-2C46,55.768,44.07,52.984,41.305,51.723z M10,45c1.654,0,3,1.346,3,3s-1.346,3-3,3  s-3-1.346-3-3S8.346,45,10,45z M16,60H4v-1c0-3.309,2.691-6,6-6s6,2.691,6,6V60z M24,45c1.654,0,3,1.346,3,3s-1.346,3-3,3  s-3-1.346-3-3S22.346,45,24,45z M30,60H18v-1c0-3.309,2.691-6,6-6s6,2.691,6,6V60z M38,45c1.654,0,3,1.346,3,3s-1.346,3-3,3  s-3-1.346-3-3S36.346,45,38,45z M44,60H32v-1c0-3.309,2.691-6,6-6s6,2.691,6,6V60z"></path><path d="M56,42.049V15V3V2h-1h-1H39c-0.552,0-1,0.447-1,1v12c0,0.553,0.448,1,1,1h15v26.049c-3.434,0.304-6,2.147-6,4.451  c0,2.523,3.075,4.5,7,4.5s7-1.977,7-4.5C62,44.196,59.434,42.353,56,42.049z M40,14V4h14v10H40z M55,49c-2.947,0-5-1.317-5-2.5  c0-1.043,1.6-2.188,4-2.444V47h2v-2.944c2.4,0.256,4,1.401,4,2.444C60,47.683,57.947,49,55,49z"></path><path d="M47,6c-1.654,0-3,1.346-3,3s1.346,3,3,3s3-1.346,3-3S48.654,6,47,6z M47,10c-0.551,0-1-0.448-1-1s0.449-1,1-1s1,0.448,1,1  S47.551,10,47,10z"></path><path d="M52,35h-8.465l-5.855-8.782c-1.177-1.767-2.175-3.659-2.966-5.626l-0.355-1.354C34.013,17.92,32.819,17,31.457,17h-8.946  c-1.334,0-2.521,0.896-2.886,2.18l-0.553,1.948c-0.651,1.619-1.445,3.195-2.337,4.648L10.471,35H2v2h50V35z M20.981,21.725  l0.567-1.998C21.67,19.299,22.066,19,22.511,19h8.946c0.454,0,0.852,0.307,0.967,0.746l0.371,1.414  c0.011,0.04,0.023,0.079,0.039,0.117c0.309,0.773,0.658,1.531,1.026,2.28l-1.583,1.056l-1.445-2.168  c-0.18-0.271-0.48-0.436-0.804-0.445c-0.334,0.004-0.633,0.14-0.828,0.4L27,25.333L24.8,22.4c-0.195-0.261-0.504-0.394-0.828-0.4  c-0.324,0.01-0.624,0.175-0.804,0.445l-1.323,1.985l-1.407-1.407c0.178-0.398,0.349-0.798,0.511-1.201  C20.961,21.79,20.972,21.758,20.981,21.725z M18.413,26.862c0.389-0.632,0.75-1.281,1.096-1.939l1.784,1.784  c0.212,0.212,0.505,0.316,0.806,0.288c0.298-0.029,0.567-0.191,0.733-0.44l1.216-1.824L26.2,27.6c0.188,0.252,0.485,0.4,0.8,0.4  s0.611-0.148,0.8-0.4l2.152-2.869l1.216,1.824c0.306,0.459,0.926,0.583,1.387,0.277l2.246-1.497  c0.385,0.677,0.785,1.345,1.216,1.992L41.131,35H12.887L18.413,26.862z"></path><rect x="58" y="35" width="4" height="2"></rect><path d="M14,10c0-2.206-1.794-4-4-4s-4,1.794-4,4s1.794,4,4,4S14,12.206,14,10z M10,12c-1.103,0-2-0.897-2-2s0.897-2,2-2  s2,0.897,2,2S11.103,12,10,12z"></path><rect x="9" y="2" width="2" height="2"></rect><rect x="9" y="16" width="2" height="2"></rect><rect x="16" y="9" width="2" height="2"></rect><rect x="2" y="9" width="2" height="2"></rect><rect x="13.949" y="4.05" transform="matrix(0.7069 -0.7074 0.7074 0.7069 0.81 12.0551)" width="2" height="2"></rect><rect x="4.05" y="13.949" transform="matrix(0.7069 -0.7074 0.7074 0.7069 -9.0943 7.9546)" width="2" height="2"></rect><rect x="13.949" y="13.949" transform="matrix(0.7074 -0.7069 0.7069 0.7074 -6.1924 14.9424)" width="2" height="2"></rect><rect x="4.05" y="4.05" transform="matrix(0.7074 -0.7069 0.7069 0.7074 -2.0919 5.0478)" width="2" height="2"></rect></svg></g><path fill="#ff0016" fill-rule="nonzero" d="M13.15 0.96L7.70 9.00L13.58 18.05L9.70 18.05L5.66 11.59L3.34 14.71L3.34 18.05L0 18.05L0 0.96L3.34 0.96L3.34 10.51L9.79 0.96L13.15 0.96ZM25.15 4.25L25.15 18.05L23.06 18.05L22.10 16.39L18.77 18.19Q15.98 18.19 15.02 16.18L15.02 16.18Q14.54 15.19 14.36 14.05Q14.18 12.91 14.18 11.68Q14.18 10.44 14.21 9.85Q14.23 9.26 14.33 8.48Q14.42 7.70 14.60 7.18Q14.78 6.65 15.12 6.08Q15.46 5.52 15.94 5.18L15.94 5.18Q17.02 4.44 18.74 4.44L18.74 4.44L22.03 4.44L25.15 4.25ZM19.66 14.90L22.03 13.68L22.03 7.25L19.66 7.25Q18.34 7.25 17.82 8.26Q17.30 9.26 17.30 11.27Q17.30 13.27 17.80 14.09Q18.29 14.90 19.66 14.90L19.66 14.90ZM39.17 8.86L39.17 18.05L36.05 18.05L36.05 9.29Q36.05 8.11 35.57 7.68Q35.09 7.25 34.22 7.25L34.22 7.25L31.42 8.42L31.42 18.05L28.30 18.05L28.30 4.34L30.62 4.34L31.34 5.98L35.18 4.20Q36.79 4.20 37.98 5.39Q39.17 6.58 39.17 8.86L39.17 8.86ZM51.72 4.25L51.72 18.05L49.63 18.05L48.67 16.39L45.34 18.19Q42.55 18.19 41.59 16.18L41.59 16.18Q41.11 15.19 40.93 14.05Q40.75 12.91 40.75 11.68Q40.75 10.44 40.78 9.85Q40.80 9.26 40.90 8.48Q40.99 7.70 41.17 7.18Q41.35 6.65 41.69 6.08Q42.02 5.52 42.50 5.18L42.50 5.18Q43.58 4.44 45.31 4.44L45.31 4.44L48.60 4.44L51.72 4.25ZM46.22 14.90L48.60 13.68L48.60 7.25L46.22 7.25Q44.90 7.25 44.39 8.26Q43.87 9.26 43.87 11.27Q43.87 13.27 44.36 14.09Q44.86 14.90 46.22 14.90L46.22 14.90ZM59.86 10.01L59.86 10.01L59.86 7.90Q59.86 4.56 61.61 2.69Q63.36 0.82 66.46 0.82Q69.55 0.82 71.42 2.69L71.42 2.69Q72.74 4.01 72.74 6.65L72.74 6.65L69.62 6.65Q69.62 3.79 66.58 3.79L66.58 3.79Q65.66 3.79 65.03 4.14Q64.39 4.49 64.08 4.94Q63.77 5.40 63.60 6.29Q63.43 7.18 63.41 7.78Q63.38 8.38 63.38 9.38Q63.38 10.39 63.40 10.74Q63.41 11.09 63.47 11.87Q63.53 12.65 63.66 12.98Q63.79 13.32 64.04 13.85Q64.30 14.38 64.68 14.59L64.68 14.59Q65.66 15.22 66.91 15.22L66.91 15.22Q69 15.22 69.86 13.44L69.86 13.44L69.86 12.29L67.80 12.29L67.80 9.50L72.72 9.50L72.72 14.66Q71.98 16.42 70.37 17.30Q68.76 18.19 66.72 18.19L66.72 18.19Q63.10 18.19 61.48 16.16Q59.86 14.14 59.86 10.01ZM85.39 4.25L85.39 18.05L83.30 18.05L82.34 16.39L79.01 18.19Q76.22 18.19 75.26 16.18L75.26 16.18Q74.78 15.19 74.60 14.05Q74.42 12.91 74.42 11.68Q74.42 10.44 74.45 9.85Q74.47 9.26 74.57 8.48Q74.66 7.70 74.84 7.18Q75.02 6.65 75.36 6.08Q75.70 5.52 76.18 5.18L76.18 5.18Q77.26 4.44 78.98 4.44L78.98 4.44L82.27 4.44L85.39 4.25ZM79.90 14.90L82.27 13.68L82.27 7.25L79.90 7.25Q78.58 7.25 78.06 8.26Q77.54 9.26 77.54 11.27Q77.54 13.27 78.04 14.09Q78.53 14.90 79.90 14.90L79.90 14.90ZM95.26 11.04L100.56 18.05L96.82 18.05L93.22 13.20L91.85 15.14L91.85 18.05L88.73 18.05L88.73 0L91.85 0L91.85 11.40L96.22 4.90L99.74 4.90L95.26 11.04ZM112.44 4.34L112.44 18.05L110.11 18.05L109.39 16.42L105.55 18.19Q103.94 18.19 102.76 17.00Q101.57 15.82 101.57 13.54L101.57 13.54L101.57 4.34L104.69 4.34L104.69 12.86Q104.69 15.14 106.51 15.14L106.51 15.14L109.32 13.63L109.32 4.34L112.44 4.34Z" transform="translate(36, 8.976)"></path></svg>